<?xml version="1.0" encoding="UTF-8" standalone="no"?>
<!-- Created with Inkscape (http://www.inkscape.org/) -->

<svg
   width="189.84668mm"
   height="235.68451mm"
   viewBox="0 0 189.84668 235.68451"
   version="1.1"
   id="svg1"
   xml:space="preserve"
   inkscape:version="1.3 (0e150ed6c4, 2023-07-21)"
   sodipodi:docname="drawing.svg"
   xmlns:inkscape="http://www.inkscape.org/namespaces/inkscape"
   xmlns:sodipodi="http://sodipodi.sourceforge.net/DTD/sodipodi-0.dtd"
   xmlns="http://www.w3.org/2000/svg"
   xmlns:svg="http://www.w3.org/2000/svg"><sodipodi:namedview
     id="namedview1"
     pagecolor="#ffffff"
     bordercolor="#000000"
     borderopacity="0.25"
     inkscape:showpageshadow="2"
     inkscape:pageopacity="0.0"
     inkscape:pagecheckerboard="0"
     inkscape:deskcolor="#d1d1d1"
     inkscape:document-units="mm"
     inkscape:zoom="1"
     inkscape:cx="358.5"
     inkscape:cy="365.5"
     inkscape:window-width="1920"
     inkscape:window-height="991"
     inkscape:window-x="-9"
     inkscape:window-y="-9"
     inkscape:window-maximized="1"
     inkscape:current-layer="layer1" /><defs
     id="defs1" /><g
     inkscape:label="Layer 1"
     inkscape:groupmode="layer"
     id="layer1"
     transform="translate(-12.065334,-35.285431)"
     style="display:inline"><path
       style="fill:#000000"
       d="m 193.31714,241.49518 c 0.0538,-0.0903 0.34275,-0.16413 0.64216,-0.16413 0.29941,0 0.54438,0.0739 0.54438,0.16413 0,0.0903 -0.28897,0.16413 -0.64216,0.16413 -0.38782,0 -0.60343,-0.065 -0.54438,-0.16413 z m -78.17086,-28.101 c -0.38586,-0.45225 -0.66421,-0.90956 -1.72659,-2.83669 -0.44787,-0.81243 -1.84513,-3.32355 -3.10504,-5.58028 -1.2599,-2.25673 -2.52977,-4.54628 -2.82194,-5.0879 -0.29216,-0.54161 -1.79204,-3.23737 -3.33306,-5.99058 -1.54101,-2.75321 -2.96063,-5.29988 -3.15471,-5.65927 -0.19407,-0.35939 -1.421053,-2.53816 -2.726623,-4.84171 -1.30557,-2.30355 -2.78905,-4.92684 -3.29663,-5.82953 -0.50757,-0.90269 -1.10512,-1.95945 -1.32789,-2.34836 l -0.40503,-0.7071 -0.726599,0.61768 c -0.399631,0.33972 -0.879427,0.84959 -1.066213,1.13305 -0.186787,0.28346 -0.784565,0.89878 -1.328396,1.36738 l -0.988785,0.85201 -0.01763,5.28707 c -0.0097,2.90789 -0.0374,6.43184 -0.06156,7.83102 -0.02416,1.39917 -0.05182,6.29046 -0.06147,10.86954 l -0.01754,8.3256 -0.392515,0.26681 c -0.942813,0.64087 -5.422061,1.91057 -7.519218,2.13142 l -1.029792,0.10845 -3.510423,-4.65517 c -1.930733,-2.56034 -4.15932,-5.50451 -4.952415,-6.54261 -0.793095,-1.03809 -1.769439,-2.32209 -2.169654,-2.85333 l -0.727662,-0.96588 0.893298,-1.82425 c 0.981073,-2.00351 1.068742,-1.63058 0.114035,0.48508 -0.495462,1.09796 -0.564488,1.37174 -0.403444,1.60023 0.106857,0.1516 0.248548,0.27564 0.314869,0.27564 0.06632,0 0.03404,-0.10818 -0.07174,-0.24041 -0.154581,-0.19323 -0.125223,-0.33815 0.149607,-0.73856 0.188061,-0.27399 0.421592,-0.49816 0.51896,-0.49816 0.09737,0 -0.0203,0.21367 -0.26148,0.47483 l -0.438511,0.47484 1.120837,1.47207 c 1.080682,1.41935 1.324922,1.83162 0.938188,1.58366 -0.114073,-0.0731 -0.139668,-0.045 -0.06817,0.0751 0.06296,0.10569 0.176484,0.1524 0.252268,0.10381 0.07578,-0.0486 0.764992,0.77321 1.531573,1.82623 0.76658,1.05301 1.60736,2.19072 1.868399,2.52824 0.587487,0.75962 2.616136,3.50383 5.068003,6.85562 0.01956,0.0267 0.880651,-0.17955 1.913536,-0.45842 1.032885,-0.27888 2.625494,-0.68698 3.539131,-0.90689 0.913637,-0.21992 1.821342,-0.43971 2.017121,-0.48842 l 0.355963,-0.0886 v -5.2489 c 0,-3.38984 0.05603,-5.24889 0.158205,-5.24889 0.209118,0 0.21808,-20.42123 0.0091,-20.82625 -0.12223,-0.23693 0.134106,-0.58162 1.42385,-1.91461 1.069095,-1.10494 1.572916,-1.74492 1.572916,-1.99801 0,-0.2048 0.09285,-0.37236 0.206335,-0.37236 0.113484,0 0.522841,-0.20587 0.909682,-0.45749 0.386841,-0.25161 0.824041,-0.43162 0.971561,-0.4 0.22014,0.0472 1.51713,2.19187 3.44656,5.69919 0.14898,0.27081 0.85927,1.52637 1.57843,2.79014 0.71916,1.26377 1.57745,2.77783 1.907303,3.36458 1.83554,3.26504 3.49319,6.22625 5.51563,9.85305 0.82833,1.48543 0.74907,1.40038 1.05834,1.13562 0.25757,-0.22051 0.26431,-0.21078 0.0896,0.12936 -0.15315,0.29818 -0.13924,0.46905 0.0735,0.90269 0.62552,1.27499 7.66329,13.8966 7.99313,14.33496 0.0881,0.11715 0.40664,-0.0953 0.93537,-0.62404 0.63325,-0.63321 0.78123,-0.87746 0.70421,-1.16238 -0.0713,-0.26382 -0.0562,-0.29865 0.0563,-0.12964 0.12574,0.18893 0.27917,0.1316 0.84095,-0.31424 0.41461,-0.32905 0.0928,0.0832 -0.81143,1.03957 -1.30826,1.38364 -1.46899,1.6144 -1.26564,1.81715 0.20294,0.20234 1.50054,-1.07191 10.08122,-9.8998 5.41656,-5.57262 9.84829,-10.21871 9.84829,-10.32465 0,-0.58038 -0.89969,0.19738 -4.57025,3.95086 -11.01887,11.26778 -13.73154,13.94745 -8.4026,8.30041 4.12944,-4.37595 3.95909,-4.17081 3.87887,-4.67116 -0.0414,-0.25803 -0.15436,-2.05683 -0.2511,-3.99734 -0.10908,-2.18804 -0.2417,-3.57039 -0.34915,-3.63928 -0.12439,-0.0798 -0.125,-0.17251 -0.002,-0.32876 0.3038,-0.38647 -0.43194,-13.06273 -0.77112,-13.28577 -0.14685,-0.0966 -0.15328,-0.13976 -0.0211,-0.1415 0.24376,-0.003 0.1545,-3.64215 -0.26978,-10.99894 -0.38213,-6.62605 -0.35393,-6.32739 -0.5929,-6.27781 -0.25181,0.0522 -0.26076,-0.23808 -0.01,-0.32479 0.19388,-0.067 0.13027,-1.75624 -0.43738,-11.61535 -0.49323,-8.56656 -0.51036,-9.48127 -0.1998,-10.66817 0.17019,-0.65045 1.38305,-2.52005 2.71501,-4.18513 0.21659,-0.27076 0.35357,-0.56619 0.30439,-0.6565 -0.0492,-0.0903 -0.0293,-0.10752 0.0442,-0.0382 0.0735,0.0693 0.36968,-0.11137 0.65819,-0.40148 0.28851,-0.2901 0.52457,-0.45388 0.52457,-0.36396 0,0.0899 -0.077,0.24334 -0.17102,0.34092 -0.1591,0.16505 0.48761,2.77559 1.98492,8.01245 0.20647,0.72215 0.60708,2.18082 0.89024,3.24148 0.28316,1.06067 0.57676,1.92848 0.65243,1.92848 0.0757,0 0.7331,-0.60932 1.46093,-1.35404 l 1.32333,-1.35403 0.64239,-4.67759 c 0.35332,-2.57267 0.97044,-6.96713 1.37137,-9.76547 0.40092,-2.79835 0.74598,-5.30947 0.76678,-5.58028 0.0208,-0.27081 0.0823,-0.60316 0.13665,-0.73856 0.0543,-0.13541 0.21509,-1.05862 0.35719,-2.05158 0.1421,-0.99296 0.30059,-1.99002 0.35219,-2.21569 0.084,-0.36746 0.0663,-0.38679 -0.16972,-0.18506 -0.35556,0.30389 -0.336,0.10722 0.0258,-0.25989 0.15917,-0.16149 0.41852,-0.81061 0.57633,-1.4425 0.38254,-1.53165 0.88675,-2.82999 1.97794,-5.09321 0.87378,-1.81229 1.00423,-2.20715 0.52691,-1.59491 -0.20208,0.2592 -0.2071,0.2512 -0.0514,-0.0821 0.0949,-0.20311 0.26937,-0.36929 0.38775,-0.36929 0.11839,0 0.44561,-0.38774 0.72715,-0.86166 1.27737,-2.15015 2.84068,-4.45412 4.57335,-6.74008 1.71034,-2.25649 2.38578,-3.257897 2.29745,-3.406167 -0.0801,-0.13446 1.19448,-1.80425 4.19877,-5.50064 0.7399,-0.91035 1.96681,-2.50033 2.72647,-3.533285 0.75965,-1.032956 1.66736,-2.167992 2.01712,-2.522302 0.34976,-0.354311 0.63592,-0.739997 0.63592,-0.857081 0,-0.117084 0.0712,-0.21288 0.15821,-0.21288 0.087,0 0.1582,-0.110784 0.1582,-0.246188 0,-0.135404 0.0698,-0.246189 0.1552,-0.246189 0.0853,0 0.20069,-0.188081 0.2563,-0.417957 0.0556,-0.229877 0.13418,-0.383658 0.17459,-0.341735 0.11332,0.117555 0.61914,-0.375963 1.49232,-1.456005 l 0.79613,-0.984754 -0.92514,1.031879 c -0.75575,0.842954 -0.96268,0.993202 -1.13023,0.820629 -0.16762,-0.172657 -0.18674,-0.151281 -0.10467,0.117001 0.0908,0.296624 0.0832,0.300452 -0.0783,0.03973 -0.0983,-0.158686 -0.12827,-0.373203 -0.0666,-0.476704 0.0656,-0.110155 0.0426,-0.143594 -0.0556,-0.08065 -0.16846,0.108006 -1.39208,-1.498335 -1.25203,-1.643628 0.0411,-0.04264 0.29858,0.260025 0.57219,0.67258 0.27361,0.412555 0.53631,0.7501 0.58378,0.7501 0.0475,0 -0.1566,-0.350819 -0.45348,-0.779597 -0.29688,-0.428779 -0.64171,-0.779788 -0.76628,-0.780022 -0.12458,-2.33e-4 -0.22753,-0.120811 -0.22878,-0.267951 -0.002,-0.272891 -0.86884,-1.308678 -1.83415,-2.192466 -0.47834,-0.437941 -0.46789,-0.412033 0.0962,0.238413 0.34805,0.40136 0.49043,0.626154 0.31641,0.499541 -0.624,-0.453986 -1.17389,-1.037779 -1.09781,-1.165487 0.0426,-0.07154 -0.33367,-0.416657 -0.8362,-0.766931 -1.27305,-0.887341 -1.38224,-0.949405 -1.23474,-0.701801 0.0907,0.15231 0.0345,0.177792 -0.21286,0.09636 -0.48041,-0.158182 -0.41656,0.149004 0.0797,0.383591 0.22878,0.108138 0.37734,0.23668 0.33014,0.285647 -0.0472,0.04897 -0.26649,-0.03378 -0.48731,-0.183881 -0.22082,-0.150102 -0.52957,-0.230517 -0.6861,-0.1787 -0.31315,0.103661 -2.18573,1.899486 -1.98904,1.907507 0.15411,0.0063 -0.46477,0.395219 -0.63814,0.401038 -0.0702,0.0024 -0.27219,0.188927 -0.44879,0.4146 -0.17661,0.225673 -0.26715,0.304594 -0.2012,0.175379 0.066,-0.129214 -0.14145,-0.02813 -0.46088,0.224637 -0.31944,0.252765 -0.5808,0.524663 -0.5808,0.604218 0,0.07955 -0.0534,0.128221 -0.11865,0.108147 -0.1658,-0.051 -0.94093,0.485798 -1.76254,1.220616 -0.38206,0.341696 -0.78891,0.621266 -0.90412,0.621266 -0.1152,0 -0.28742,0.151115 -0.3827,0.335811 -0.0953,0.184696 -0.50714,0.551666 -0.91525,0.81549 -0.40811,0.263823 -1.04386,0.801433 -1.41278,1.194689 -0.36892,0.393256 -1.10494,0.967956 -1.6356,1.277113 -0.53065,0.309156 -1.28948,0.844688 -1.6863,1.19007 -1.18741,1.033515 -3.81304,3.064862 -3.9615,3.064862 -0.076,0 -0.30889,0.18842 -0.51744,0.41872 -0.32253,0.35616 -2.36547,1.61646 -2.36547,1.45926 0,-0.0295 1.14562,-0.91645 2.54583,-1.971 1.40021,-1.054542 3.63492,-2.788872 4.96604,-3.854063 1.33111,-1.065191 2.873,-2.290009 3.42642,-2.721819 0.55343,-0.431809 1.39779,-1.125422 1.87636,-1.541362 0.47857,-0.415939 1.08371,-0.892497 1.34475,-1.059016 0.7998,-0.510205 3.66698,-2.88996 6.30042,-5.229339 5.3034,-4.711212 9.09259,-7.301536 15.54423,-10.626163 2.67795,-1.379989 3.67484,-1.980834 4.27306,-2.575463 0.42914,-0.426561 1.41206,-1.403347 2.18428,-2.170635 0.77221,-0.767287 1.37667,-1.307947 1.34324,-1.201467 -0.0334,0.106481 -0.9507,1.168243 -2.03836,2.359472 -1.67787,1.837636 -2.05171,2.345597 -2.46677,3.351802 -1.88289,4.564564 -5.36025,10.689752 -8.2948,14.610838 -1.56836,2.09561 -3.72107,4.704637 -4.0296,4.883758 -0.1311,0.07611 -0.23836,0.239347 -0.23836,0.362743 0,0.123395 -0.0534,0.248974 -0.11865,0.279064 -0.0653,0.03009 -0.40196,0.423992 -0.74822,0.875337 -0.34625,0.451346 -0.71168,0.909583 -0.81206,1.018304 -0.10038,0.108721 -0.74259,0.94729 -1.42712,1.863486 -0.68453,0.916193 -1.6392,2.193583 -2.12149,2.838653 -1.98262,2.65178 -5.86302,7.901647 -7.72104,10.445937 -1.27409,1.74469 -3.66997,5.38062 -4.44243,6.74175 -1.45851,2.56996 -2.81942,6.24806 -3.24424,8.76813 -0.6808,4.03853 -1.31259,8.34098 -2.85599,19.44889 -0.39509,2.84348 -0.80076,5.38189 -0.9015,5.64091 -0.15802,0.40631 -2.87807,3.05775 -3.13687,3.05775 -0.0512,0 -0.53979,-1.6433 -1.08574,-3.65179 -0.54596,-2.00849 -1.16211,-4.24265 -1.36922,-4.96481 -0.20711,-0.72215 -0.57069,-2.0331 -0.80796,-2.91323 -0.23727,-0.88012 -0.48262,-1.60022 -0.54523,-1.60022 -0.16382,0 -1.57451,1.72261 -2.33155,2.8471 -0.35534,0.52781 -0.76643,1.33557 -0.91352,1.79501 -0.32816,1.02496 -0.28599,2.42666 0.48496,16.11979 0.29477,5.23561 0.58027,10.47943 0.63445,11.65292 0.0542,1.1735 0.20039,4.09084 0.32495,6.48297 0.41143,7.90197 0.70468,13.48365 0.93988,17.8897 0.1277,2.39213 0.28109,5.27254 0.34087,6.4009 0.0598,1.12837 0.15077,2.20986 0.2022,2.40332 0.0807,0.30372 0.62802,-0.19312 4.00813,-3.63873 2.78554,-2.83953 4.07767,-4.04631 4.47991,-4.18403 0.31091,-0.10645 0.59957,-0.15797 0.64149,-0.11449 0.38075,0.395 -0.6233,1.51606 -10.02759,11.19627 -5.43716,5.59669 -9.96883,10.19674 -10.07036,10.22235 -0.10153,0.0256 -0.32851,-0.12211 -0.50439,-0.32825 z m -30.753673,-1.19673 c 1.750262,-0.45059 2.916115,-0.87326 2.452186,-0.88902 -0.289628,-0.01 -5.012817,1.2081 -5.378989,1.38704 -0.376895,0.18418 1.551379,-0.14393 2.926803,-0.49802 z m 4.234272,-6.63285 c 0.02907,-3.5654 -0.0094,-5.11205 -0.126233,-5.07166 -0.111895,0.0387 -0.190557,1.77539 -0.235379,5.19665 -0.05245,4.0035 -0.02457,5.12376 0.126233,5.07166 0.14589,-0.0504 0.203854,-1.33012 0.235379,-5.19665 z m -18.09215,-5.59291 c -0.532935,-0.76957 -1.075645,-1.33551 -0.772215,-0.80527 0.188981,0.33024 1.209359,1.62559 1.280517,1.62559 0.03288,0 -0.195856,-0.36915 -0.508302,-0.82032 z m 18.079295,-0.19521 c -0.0505,-0.13093 -0.08799,-0.092 -0.09558,0.0992 -0.0069,0.17301 0.03052,0.26995 0.08309,0.21541 0.05257,-0.0545 0.05819,-0.19609 0.01249,-0.31457 z m 0.0016,-1.73046 c -0.04011,-0.15968 -0.07557,-0.0688 -0.07879,0.20204 -0.0032,0.2708 0.0296,0.40146 0.07293,0.29034 0.04334,-0.11112 0.04597,-0.33269 0.0059,-0.49238 z m 0.19113,-10.83542 c 0.01024,-5.29019 -0.03902,-8.08319 -0.14256,-8.08319 -0.103815,0 -0.150547,3.08931 -0.13593,8.98589 0.01225,4.94223 0.0764,8.57967 0.142559,8.08319 0.06616,-0.49648 0.127325,-4.54013 0.135931,-8.98589 z M 161.35966,82.621503 c 0.15749,-0.180538 0.25075,-0.328252 0.20724,-0.328252 -0.0435,0 -0.20796,0.147714 -0.36545,0.328252 -0.15749,0.180538 -0.25075,0.328251 -0.20724,0.328251 0.0435,0 0.20796,-0.147713 0.36545,-0.328251 z m 1.98808,-2.722718 c 0.61329,-0.853934 1.3634,-1.975469 1.66692,-2.492301 0.30352,-0.516832 0.66408,-1.105872 0.80125,-1.308978 0.13717,-0.203105 0.21205,-0.369283 0.16639,-0.369283 -0.0457,0 -0.34813,0.424676 -0.67215,0.943723 -1.02932,1.648862 -1.85732,2.882538 -2.65914,3.961969 -0.42846,0.576805 -0.69786,0.996703 -0.59867,0.933107 0.0992,-0.0636 0.68212,-0.814303 1.2954,-1.668237 z m -8.87002,-3.792726 c 0,-0.04514 -0.42716,0.301835 -0.94924,0.771044 -0.52208,0.469209 -0.94923,0.890036 -0.94923,0.93517 0,0.04513 0.42715,-0.301835 0.94923,-0.771044 0.52208,-0.469209 0.94924,-0.890035 0.94924,-0.93517 z m 1.42385,-1.143984 c 0,-0.04514 -0.28477,0.151919 -0.63283,0.437897 -0.34805,0.285978 -0.63282,0.556888 -0.63282,0.602023 0,0.04513 0.28477,-0.151919 0.63282,-0.437897 0.34806,-0.285978 0.63283,-0.556888 0.63283,-0.602023 z m 10.84208,-0.464794 c 0.24342,-0.451346 0.36914,-0.746772 0.27937,-0.656503 -0.0898,0.09027 -0.36237,0.533408 -0.60579,0.984754 -0.24342,0.451346 -0.36914,0.746772 -0.27937,0.656503 0.0898,-0.09027 0.36237,-0.533409 0.60579,-0.984754 z m -10.34729,0.123094 c 0.19679,-0.260313 0.19119,-0.266118 -0.0597,-0.06197 -0.15227,0.12389 -0.27686,0.253139 -0.27686,0.28722 0,0.135081 0.12992,0.04814 0.33659,-0.225253 z m 0.63282,-0.492377 c 0.19679,-0.260313 0.1912,-0.266118 -0.0597,-0.06197 -0.15227,0.12389 -0.27686,0.253139 -0.27686,0.28722 0,0.135081 0.12992,0.04814 0.33659,-0.225253 z m 2.66932,-1.93848 c 0,-0.04513 -0.53394,0.291721 -1.18654,0.748568 -0.6526,0.456848 -1.18654,0.86756 -1.18654,0.912695 0,0.04513 0.53394,-0.291722 1.18654,-0.748569 0.6526,-0.456847 1.18654,-0.86756 1.18654,-0.912694 z m 9.02473,-1.467129 c 0.63187,-1.263767 1.07739,-2.223903 0.99004,-2.133634 -0.0873,0.09027 -0.67682,1.198118 -1.30995,2.461886 -0.63313,1.263768 -1.07865,2.223903 -0.99004,2.133634 0.0886,-0.09027 0.67809,-1.198118 1.30995,-2.461886 z m -8.2337,0.973206 c 0,-0.04514 -0.14239,-0.003 -0.31641,0.09361 -0.17403,0.09662 -0.31642,0.212604 -0.31642,0.257738 0,0.04514 0.14239,0.003 0.31642,-0.09361 0.17402,-0.09662 0.31641,-0.212603 0.31641,-0.257738 z m 1.02833,-0.641982 0.31641,-0.267269 -0.31641,0.161154 c -0.17402,0.08863 -0.45879,0.281424 -0.63282,0.428422 l -0.31641,0.267269 0.31641,-0.161153 c 0.17403,-0.08863 0.4588,-0.281425 0.63282,-0.428423 z m 1.02834,-0.671024 c 0,-0.04514 -0.14239,-0.003 -0.31641,0.09361 -0.17403,0.09662 -0.31641,0.212603 -0.31641,0.257738 0,0.04513 0.14238,0.003 0.31641,-0.09361 0.17402,-0.09662 0.31641,-0.212604 0.31641,-0.257738 z m 1.42385,-0.817509 c 0,-0.04514 -0.21358,0.03252 -0.47462,0.172555 -0.26104,0.14004 -0.47461,0.291547 -0.47461,0.336681 0,0.04514 0.21357,-0.03252 0.47461,-0.172555 0.26104,-0.14004 0.47462,-0.291546 0.47462,-0.336681 z m 2.37308,-1.309301 c 0,-0.04514 -0.42715,0.141633 -0.94923,0.415039 -0.52208,0.273406 -0.94923,0.534031 -0.94923,0.579165 0,0.04514 0.42715,-0.141633 0.94923,-0.415039 0.52208,-0.273406 0.94923,-0.534031 0.94923,-0.579165 z m 3.79209,-0.487652 c 0,-0.09027 -0.069,-0.05334 -0.15336,0.08206 -0.0844,0.135403 -0.15336,0.320045 -0.15336,0.410314 0,0.09027 0.069,0.05334 0.15336,-0.08206 0.0844,-0.135404 0.15336,-0.320045 0.15336,-0.410314 z m -2.92196,0.08206 c 0.0538,-0.09027 0.0266,-0.164126 -0.0604,-0.164126 -0.087,0 -0.2022,0.07386 -0.25598,0.164126 -0.0538,0.09027 -0.0266,0.164125 0.0604,0.164125 0.087,0 0.20221,-0.07386 0.25598,-0.164125 z m 1.64798,-0.924923 c 0.21711,-0.197059 -0.29783,-0.01406 -0.54985,0.195411 -0.28957,0.24067 -0.28452,0.244086 0.0884,0.05983 0.21753,-0.107476 0.42517,-0.222335 0.46143,-0.255242 z m 1.41368,-0.335213 c -0.18552,-0.231901 -0.17024,-0.250767 0.12451,-0.153716 0.23641,0.07784 0.36609,0.02925 0.43755,-0.163942 0.15078,-0.407627 -0.006,-0.468888 -0.44198,-0.172597 -0.34302,0.23316 -0.36641,0.31088 -0.2027,0.67337 0.10179,0.225383 0.2096,0.335862 0.23958,0.245509 0.03,-0.09035 -0.0406,-0.283234 -0.15696,-0.428624 z M 44.454022,195.74298 c 0.235429,-1.72366 1.205923,-3.5659 3.333059,-6.32698 0.638914,-0.82932 1.16297,-1.59114 1.16457,-1.69292 0.0016,-0.10179 -0.10388,-0.27701 -0.234399,-0.38938 -0.13052,-0.11238 -0.237309,-0.27404 -0.237309,-0.35926 0,-0.0852 0.696762,-0.98091 1.54836,-1.99044 2.231459,-2.64529 2.687012,-3.25057 4.100394,-5.4481 1.250661,-1.94453 1.923594,-2.78928 1.684015,-2.11399 -0.06057,0.17074 -0.631744,1.11521 -1.269266,2.09881 -1.195199,1.84403 -1.345281,2.1778 -0.899445,2.00032 0.212958,-0.0848 0.22511,-0.0602 0.06754,0.13681 -0.105682,0.1321 -0.283092,0.20398 -0.394244,0.15974 -0.115801,-0.0461 -0.697424,0.53623 -1.362131,1.36379 -0.63802,0.79433 -1.60784,1.97006 -2.155155,2.61272 -0.979648,1.15032 -0.990268,1.17304 -0.683127,1.4614 0.300851,0.28245 0.323297,0.27939 0.628556,-0.0858 0.548283,-0.65583 0.343039,-0.14957 -0.237157,0.58498 -0.304545,0.38557 -0.553719,0.77477 -0.553719,0.86489 0,0.0901 -0.05681,0.18847 -0.126243,0.21856 -0.408625,0.17709 -2.852105,3.67808 -3.360126,4.81436 -0.574265,1.28444 -0.850598,2.25725 -0.688855,2.42504 0.303185,0.31453 3.160657,-0.98616 4.413283,-2.00889 0.434652,-0.35487 1.217432,-0.99118 1.73951,-1.414 0.522079,-0.42283 0.93229,-0.83023 0.91158,-0.90534 -0.02071,-0.0751 0.05071,-0.10139 0.158705,-0.0584 0.107997,0.043 0.563583,-0.25509 1.012414,-0.66241 0.952911,-0.86478 1.291812,-0.98401 0.554856,-0.19521 -0.488549,0.52291 -0.497683,0.55648 -0.221877,0.81542 0.270819,0.25426 0.347405,0.21621 1.309068,-0.65049 0.561782,-0.5063 1.057018,-0.96854 1.100524,-1.02718 0.04351,-0.0587 0.577451,-0.45389 1.186542,-0.87831 0.609091,-0.42443 1.28542,-0.89697 1.502953,-1.0501 0.593838,-0.41802 0.197498,-0.0319 -0.870131,0.84771 -0.522078,0.43013 -1.234003,1.05025 -1.582055,1.37804 -1.119722,1.05454 -2.254457,1.98905 -2.41522,1.98905 -0.08604,0 -0.245056,-0.11079 -0.353378,-0.24619 -0.108321,-0.1354 -0.277222,-0.24506 -0.375334,-0.24369 -0.09811,0.001 -0.800267,0.5124 -1.560344,1.13561 -2.894905,2.37364 -4.256889,3.12059 -6.419047,3.52041 l -0.52355,0.0968 z m 19.023889,-2.71463 c -0.90508,-1.01073 -1.951161,-2.18573 -2.324625,-2.61111 l -0.679025,-0.77341 1.464402,-2.26291 c 0.805421,-1.24461 1.596129,-2.44037 1.757129,-2.65726 0.467152,-0.62931 0.198008,-0.60563 -0.573808,0.0505 -0.851891,0.72419 -4.228435,3.03668 -3.872746,2.65233 0.136744,-0.14776 0.57363,-0.50604 0.970858,-0.79618 2.028334,-1.48153 4.288625,-3.3363 4.201454,-3.44766 -0.105074,-0.13424 0.974263,-1.33147 1.091289,-1.21048 0.0727,0.0752 -0.114647,0.36546 -0.416336,0.6451 -0.30169,0.27965 -0.561021,0.59677 -0.576292,0.70471 -0.112641,0.79619 -0.620577,1.9198 -1.133519,2.50748 -0.485627,0.55638 -0.985797,1.41252 -1.06059,1.81542 -0.03367,0.18139 -0.361715,0.75178 -0.728986,1.26754 -0.407693,0.57252 -0.562632,0.89589 -0.397824,0.83028 0.161052,-0.0641 0.230683,-0.0416 0.172618,0.0559 -0.187271,0.31435 1.01946,1.78493 1.474525,1.79693 0.113902,0.003 0.166135,0.0742 0.116074,0.15824 -0.158513,0.26608 0.185937,0.34693 0.390203,0.0916 0.107527,-0.13441 0.269012,-0.24438 0.358857,-0.24438 0.08984,0 0.0341,0.14816 -0.123872,0.32925 -0.306788,0.35169 -0.200553,0.68393 0.114258,0.35734 0.321837,-0.33388 0.50467,-0.21175 0.202153,0.13504 -0.373742,0.42844 -0.175764,0.63382 0.237216,0.24609 0.17456,-0.16388 0.317381,-0.22171 0.317381,-0.1285 0,0.0932 -0.106004,0.26073 -0.235566,0.37228 -0.129562,0.11155 -0.193243,0.27386 -0.141515,0.36069 0.05228,0.0878 0.249268,0.007 0.443519,-0.18272 0.505785,-0.49294 0.69025,-0.41876 0.238,0.0957 l -0.38354,0.43631 0.48193,-0.36038 c 0.440728,-0.32957 0.526117,-0.34111 0.998756,-0.13495 l 0.516826,0.22545 -0.365934,0.28256 c -0.213612,0.16495 -0.127126,0.14163 0.207773,-0.056 0.315538,-0.18622 0.793904,-0.36518 1.063035,-0.39769 0.645989,-0.078 2.262989,-0.93336 2.189192,-1.158 -0.07303,-0.22232 0.952789,-0.96406 1.154457,-0.83476 0.159502,0.10227 1.326313,-0.59903 1.510189,-0.90768 0.06042,-0.10142 0.499,-0.44264 0.974624,-0.75828 0.566482,-0.37594 0.835029,-0.6543 0.778543,-0.80701 -0.09597,-0.25946 0.03731,-0.29646 0.342971,-0.0952 0.144489,0.0951 -0.02113,0.33206 -0.582997,0.83404 -0.563862,0.50376 -0.943697,1.04824 -1.349133,1.93392 -0.310372,0.67801 -0.74215,1.452 -0.959507,1.71998 -0.475971,0.58683 -0.492729,0.52832 -0.08651,-0.30203 0.752929,-1.53908 0.955319,-2.02594 0.841524,-2.02433 -0.06703,9.5e-4 -0.549024,0.33777 -1.071103,0.74849 -0.522078,0.41072 -2.063319,1.32923 -3.42498,2.04113 l -2.475746,1.29437 z m 2.009131,0.21387 c 0.05378,-0.0903 0.02658,-0.16412 -0.06043,-0.16412 -0.08701,0 -0.202205,0.0738 -0.255982,0.16412 -0.05378,0.0903 -0.02658,0.16413 0.06043,0.16413 0.08701,0 0.202205,-0.0739 0.255982,-0.16413 z m 5.141681,-1.91209 c 0,-0.11873 -0.609721,0.2634 -0.722593,0.45287 -0.05907,0.0991 0.07935,0.0533 0.3076,-0.10182 0.228246,-0.15515 0.414993,-0.31312 0.414993,-0.35105 z M 50.688436,179.48289 c -0.134031,-0.15038 -1.214698,-1.2264 -2.401481,-2.39117 l -2.157788,-2.11776 1.156993,-2.3957 c 0.636346,-1.31763 1.304336,-2.58034 1.484423,-2.80601 l 0.327429,-0.41032 -0.115993,0.41032 c -0.0638,0.22567 -0.35654,0.92731 -0.650543,1.55919 -0.294003,0.63189 -0.743574,1.60249 -0.999047,2.1569 l -0.464497,1.00802 0.311763,0.7153 c 0.33934,0.77857 0.616472,1.11289 1.545297,1.86418 0.334801,0.27081 0.841411,0.73241 1.1258,1.02579 0.284389,0.29337 0.594838,0.53341 0.689887,0.53341 0.09505,0 0.124103,0.0818 0.06456,0.18171 -0.07374,0.12378 0.0052,0.14433 0.247784,0.0645 0.242541,-0.0799 0.321527,-0.0593 0.247783,0.0645 -0.151425,0.25418 0.08903,0.21734 0.454828,-0.0697 0.168904,-0.13253 0.430807,-0.24096 0.582006,-0.24096 0.1512,0 0.524919,-0.24004 0.830486,-0.53341 0.305568,-0.29338 0.64231,-0.55579 0.748318,-0.58313 0.317461,-0.0819 1.136906,-0.50467 1.684989,-0.86934 0.282792,-0.18815 0.514168,-0.29688 0.514168,-0.24162 0,0.10912 -4.51525,3.20359 -4.806045,3.29375 -0.09759,0.0303 -0.287093,-0.068 -0.421124,-0.2184 z m 4.793987,-1.1253 c 0.147093,-0.1526 0.32047,-0.22244 0.385282,-0.15521 0.06481,0.0672 0.01311,0.19096 -0.114887,0.27494 -0.385163,0.2527 -0.556333,0.1769 -0.270395,-0.11973 z m 0.907799,-2.25807 c 0,-0.0451 0.213577,-0.19664 0.474616,-0.33668 0.261039,-0.14004 0.474617,-0.21769 0.474617,-0.17256 0,0.0451 -0.213578,0.19664 -0.474617,0.33668 -0.261039,0.14004 -0.474616,0.21769 -0.474616,0.17256 z M 41.41615,170.04525 c -0.778219,-0.64663 -2.657496,-2.20226 -4.176171,-3.45695 -1.518676,-1.2547 -4.104325,-3.39654 -5.745888,-4.75965 l -2.984659,-2.47838 0.08652,-1.14888 c 0.112249,-1.49045 1.031147,-5.22828 1.686151,-6.85881 l 0.513601,-1.27853 15.651626,0.0399 15.651627,0.0399 1.999003,-2.07381 1.999003,-2.0738 -0.937785,-0.59478 c -0.515782,-0.32712 -1.970076,-1.22859 -3.231766,-2.00325 -1.261689,-0.77467 -3.779919,-2.32415 -5.596066,-3.4433 -1.816147,-1.11914 -3.59596,-2.20784 -3.955139,-2.41932 -1.26419,-0.74433 -5.084682,-3.08578 -5.241015,-3.21203 -0.08701,-0.0703 -2.899117,-1.80899 -6.24912,-3.86382 -3.350003,-2.05483 -7.450165,-4.5699 -9.111472,-5.58904 -1.661306,-1.01914 -3.13399,-2.03258 -3.272631,-2.25209 l -0.252074,-0.39911 9.889353,-10.15658 c 5.439144,-5.58612 10.079894,-10.24557 10.312779,-10.35433 0.744474,-0.3477 0.822558,-0.28087 0.566662,0.48497 -0.185546,0.55529 -1.022119,1.5175 -4.1025,4.71861 l -3.869427,4.02108 0.750234,0.11006 c 1.294141,0.18985 6.200826,0.46728 8.264999,0.46732 1.087663,2e-5 2.796283,0.11587 3.796933,0.25745 1.000651,0.14158 1.961749,0.26003 2.135776,0.26322 0.174026,0.003 4.054017,0.25295 8.622203,0.55502 4.568186,0.30206 11.260281,0.73863 14.871323,0.97014 3.611042,0.23152 7.52663,0.4892 8.701306,0.57262 1.174677,0.0834 4.164762,0.27573 6.644641,0.42735 l 4.50886,0.27568 0.918983,-0.36461 c 0.50545,-0.20053 1.40455,-0.74542 1.998,-1.21086 1.11527,-0.87469 2.3829,-2.01943 2.3829,-2.15188 0,-0.0416 -0.51614,-0.23076 -1.14699,-0.42048 -0.63084,-0.18971 -2.25047,-0.6764 -3.599173,-1.08153 -1.34871,-0.40514 -3.02173,-0.91359 -3.71784,-1.12991 -0.6961,-0.21631 -1.92125,-0.59261 -2.72255,-0.83622 -1.738952,-0.52867 -1.745758,-0.43135 0.17423,-2.49149 l 1.28642,-1.38033 2.84583,-0.38534 c 5.624933,-0.76164 16.473003,-2.40402 20.487413,-3.10176 4.3586,-0.757567 7.15258,-1.993587 12.24013,-5.414907 1.3146,-0.88405 0.94865,-0.42712 -0.48394,0.60425 -3.31139,2.38398 -6.25886,3.8454 -9.50819,4.714337 -0.37243,0.0996 -0.64021,0.2431 -0.59505,0.31889 0.0452,0.0758 -0.0542,0.17477 -0.2207,0.21995 -0.22463,0.061 -0.27849,0.0165 -0.20865,-0.17239 0.0518,-0.13999 0.0287,-0.21395 -0.0514,-0.16434 -0.08,0.0496 -0.99985,0.21556 -2.04401,0.36879 -1.04416,0.15323 -2.04959,0.3788 -2.23429,0.50127 -0.18471,0.12247 -0.47974,0.18363 -0.65564,0.13591 -0.17589,-0.0477 -1.30623,0.0662 -2.51187,0.25315 -4.06157,0.6298 -14.522783,2.13505 -15.639543,2.25034 l -1.10744,0.11434 -1.30519,1.31743 c -0.71786,0.72458 -1.3052,1.41305 -1.3052,1.52992 0,0.11791 0.40491,0.33287 0.90968,0.48295 0.88662,0.26361 8.313633,2.51373 10.593933,3.20959 1.08122,0.32994 1.13139,0.36647 0.95518,0.6954 -0.10229,0.19095 -0.16909,0.40806 -0.14845,0.48247 0.0206,0.0744 -0.0366,0.0877 -0.12729,0.0296 -0.0907,-0.0581 -0.60857,0.28847 -1.15091,0.77019 -0.54235,0.48173 -1.34205,1.12746 -1.77712,1.43495 -0.43506,0.30749 -0.82187,0.58443 -0.85958,0.61542 -0.0377,0.031 0.0157,0.14373 0.11866,0.25055 0.31191,0.32359 0.20934,0.52847 -0.11305,0.22579 -0.27663,-0.25971 -0.38831,-0.26299 -1.418853,-0.0417 -0.72578,0.15584 -1.32868,0.1939 -1.71686,0.10837 -0.32905,-0.0725 -1.55938,-0.17405 -2.73405,-0.22567 -1.87324,-0.0823 -11.691325,-0.73305 -15.292285,-1.01355 -1.165061,-0.0907 -1.298394,-0.0712 -1.365947,0.20017 -0.06761,0.2716 -0.07664,0.27291 -0.09321,0.0135 -0.01009,-0.15797 -0.07726,-0.28722 -0.149251,-0.28722 -0.072,0 -1.72722,-0.1077 -3.678279,-0.23933 -1.95106,-0.13163 -4.236597,-0.2849 -5.078973,-0.3406 l -1.531593,-0.10127 -0.0647,0.54576 -0.0647,0.54576 -0.02532,-0.5145 c -0.02434,-0.49463 -0.05739,-0.5182 -0.855898,-0.6105 -0.456818,-0.0528 -1.649293,-0.14153 -2.649943,-0.19718 -1.00065,-0.0556 -1.979547,-0.12685 -2.175327,-0.15823 -0.223198,-0.0358 -0.355962,0.0271 -0.355962,0.16858 0,0.1241 -0.07595,0.27434 -0.168787,0.33386 -0.101316,0.065 -0.148747,-0.0132 -0.118654,-0.19547 0.04557,-0.27609 -0.12244,-0.31484 -1.848334,-0.42626 -1.044157,-0.0674 -2.859566,-0.24834 -4.034242,-0.40204 -1.174677,-0.15371 -3.116919,-0.29493 -4.316095,-0.31382 -2.12533,-0.0335 -2.192333,-0.0239 -2.656625,0.38143 -0.261968,0.22868 -0.510615,0.38018 -0.55255,0.33668 -0.04193,-0.0435 0.03227,-0.17252 0.164888,-0.28671 0.546497,-0.47052 0.425031,-0.49163 -4.791164,-0.83275 l -2.738314,-0.17908 -0.702657,0.59732 c -0.386461,0.32853 -0.702657,0.70316 -0.702657,0.83252 0,0.12936 -0.09197,0.2352 -0.204368,0.2352 -0.112403,0 -0.518785,0.33236 -0.903071,0.73857 -0.384285,0.40621 -0.634963,0.73857 -0.55706,0.73857 0.0779,0 -0.06055,0.21894 -0.307681,0.48654 -0.247127,0.2676 -0.495501,0.45693 -0.551941,0.42074 -0.139764,-0.0896 -2.457531,2.34366 -2.466545,2.58946 -0.004,0.10785 -0.08285,0.18111 -0.175323,0.16281 -0.09247,-0.0183 -0.369527,0.18481 -0.615678,0.45135 -0.246151,0.26654 -0.507595,0.48462 -0.580985,0.48462 -0.07339,0 3.362403,-3.63744 7.635097,-8.08319 4.272695,-4.44576 7.871919,-8.2863 7.998276,-8.53454 0.201902,-0.39666 0.2013,-0.45135 -0.005,-0.45135 -0.12909,0 -4.663216,4.57554 -10.075838,10.16786 -8.654986,8.94233 -9.815673,10.19968 -9.629919,10.43187 0.18727,0.23409 0.398836,0.0722 1.866543,-1.42816 0.910433,-0.9307 1.61008,-1.55689 1.554772,-1.39154 -0.05531,0.16536 -0.100561,0.36747 -0.100561,0.44915 0,0.0817 -0.249174,0.2565 -0.55372,0.38851 -0.304545,0.13201 -0.553719,0.35457 -0.553719,0.49458 0,0.14001 -0.05339,0.25498 -0.118654,0.25548 -0.224532,0.002 -1.632868,1.48866 -1.546807,1.63312 0.04738,0.0795 0.566085,0.43435 1.152667,0.78847 0.586582,0.35412 2.917519,1.77304 5.179858,3.15315 2.26234,1.38011 4.326922,2.63673 4.587962,2.79249 0.261039,0.15576 1.141478,0.70372 1.956532,1.2177 0.815053,0.51397 1.515113,0.90006 1.555688,0.85796 0.04057,-0.0421 0.198795,0.0532 0.3516,0.21169 0.287836,0.29861 1.519964,1.07781 6.894158,4.35986 1.740261,1.06278 5.406675,3.31557 8.147587,5.00618 2.740911,1.69062 5.499621,3.38812 6.130465,3.77223 0.630845,0.38411 1.146991,0.74819 1.146991,0.80907 0,0.0609 -1.223025,1.36342 -2.717834,2.89453 -1.850662,1.8956 -2.736248,2.70018 -2.775546,2.52167 -0.05109,-0.23206 -0.74263,-0.27455 -6.023023,-0.37008 -7.962387,-0.14405 -13.796492,-0.16103 -13.912672,-0.0405 -0.05212,0.0541 -2.356254,0.0983 -5.120306,0.0983 -5.604789,0 -5.069463,-0.12052 -5.29368,1.19172 -0.120574,0.70567 -0.373702,1.00031 -0.276178,0.32147 l 0.06413,-0.44637 -0.245159,0.44128 c -0.291797,0.52523 -1.201129,4.29601 -1.178918,4.88868 0.01135,0.3027 0.07114,0.21531 0.221777,-0.32413 0.307623,-1.1016 0.279813,-0.30142 -0.03167,0.91128 -0.147939,0.57597 -0.23693,1.07536 -0.197757,1.10976 0.03917,0.0344 1.245899,1.01411 2.681614,2.17715 1.435716,1.16304 2.970868,2.4114 3.411449,2.77414 0.440582,0.36273 1.357949,1.10265 2.038594,1.64427 0.680645,0.54161 2.171174,1.75086 3.312287,2.68721 1.141113,0.93634 2.166394,1.73926 2.278401,1.78425 0.112007,0.045 0.343383,-0.0494 0.514168,-0.20973 0.170785,-0.16034 0.310519,-0.21472 0.310519,-0.12084 0,0.0939 -0.17533,0.28987 -0.389621,0.43553 -0.377639,0.2567 -0.415343,0.24323 -1.226093,-0.43781 -1.199414,-1.00753 -2.023014,-1.64444 -2.023014,-1.56446 0,0.14615 2.823367,2.43168 3.003916,2.43168 0.104763,0 0.379444,-0.10966 0.610402,-0.24369 0.230958,-0.13404 1.274234,-0.66004 2.31839,-1.16889 1.044157,-0.50886 2.553779,-1.24457 3.354715,-1.63493 1.114232,-0.54305 1.649412,-0.9231 2.278706,-1.61818 0.742528,-0.82015 0.841798,-0.881 1.021461,-0.6261 0.251284,0.35651 0.135031,0.56211 -0.282133,0.49897 -0.187938,-0.0284 -0.397038,0.0823 -0.500153,0.26496 -0.09746,0.17262 -0.304379,0.45228 -0.459825,0.62146 -0.155447,0.16919 -0.240236,0.37877 -0.188421,0.46575 0.05182,0.087 0.0056,0.15814 -0.102687,0.15814 -0.108293,0 -0.361669,0.16059 -0.563056,0.35686 -0.301664,0.294 -0.366159,0.30999 -0.366159,0.0908 0,-0.20335 -0.624735,0.0455 -2.649943,1.0555 -2.451445,1.22258 -3.691408,1.83177 -4.327378,2.126 -0.17738,0.0821 -0.678792,-0.23599 -1.668528,-1.05837 z m -0.530074,-19.39598 c 0,-0.21757 -0.614313,-0.24313 -4.930794,-0.20516 -3.773833,0.0332 -4.946249,0.0915 -4.99666,0.24853 -0.05176,0.16123 1.00381,0.20515 4.930795,0.20515 4.356898,0 4.996659,-0.0318 4.996659,-0.24852 z m 20.645826,0.0844 c 0.06309,-0.10591 -0.593018,-0.16625 -1.849578,-0.1701 -1.071045,-0.003 -5.471384,-0.0476 -9.778531,-0.0985 -4.307146,-0.0509 -7.785563,-0.044 -7.729815,0.0154 0.05575,0.0594 3.757758,0.16556 8.226689,0.23596 4.468931,0.0704 8.779659,0.14002 9.579394,0.15471 0.828044,0.0152 1.496161,-0.0439 1.551841,-0.13741 z m -19.657041,-0.27283 c -0.108767,-0.0455 -0.286748,-0.0455 -0.395514,0 -0.108766,0.0455 -0.01978,0.0828 0.197757,0.0828 0.217533,0 0.306523,-0.0373 0.197757,-0.0828 z M 37.247348,114.8722 c 0.204361,-0.22567 0.33597,-0.41031 0.292463,-0.41031 -0.04351,0 -0.246307,0.18464 -0.450669,0.41031 -0.204361,0.22567 -0.335969,0.41031 -0.292463,0.41031 0.04351,0 0.246308,-0.18464 0.450669,-0.41031 z m 65.734412,6.15471 c -0.0538,-0.0903 0.0132,-0.16412 0.14887,-0.16412 0.13566,0 0.24665,0.0739 0.24665,0.16412 0,0.0903 -0.067,0.16413 -0.14887,0.16413 -0.0819,0 -0.19287,-0.0739 -0.24665,-0.16413 z m 42.6364,-18.61069 c 0,-0.14074 2.14294,-2.824277 2.37324,-2.971937 0.42049,-0.2696 0.26469,-0.0663 -2.3161,3.022747 -0.0314,0.0376 -0.0571,0.0147 -0.0571,-0.0508 z m -23.09801,-2.36981 c 0,-0.0751 0.46275,-0.326997 1.02834,-0.559797 1.1634,-0.47886 1.39836,-0.43976 0.32296,0.0537 -0.38795,0.17803 -0.74812,0.39545 -0.80036,0.483147 -0.11593,0.19458 -0.55094,0.21268 -0.55094,0.0229 z m 33.84748,-18.36863 -0.54521,-0.615471 0.59327,0.565604 c 0.55221,0.526453 0.66602,0.665338 0.54521,0.665338 -0.0264,0 -0.29341,-0.276962 -0.59327,-0.615471 z m -0.95269,-0.323285 c -0.28139,-0.327485 -0.29943,-0.382129 -0.0678,-0.205157 0.50376,0.384808 0.74661,0.651536 0.59321,0.651536 -0.0781,0 -0.31452,-0.20087 -0.52546,-0.446379 z m -2.00823,-2.13888 c -0.45851,-0.319801 -0.80337,-0.612876 -0.76635,-0.651278 0.0667,-0.0692 1.83732,1.095144 1.83732,1.208203 0,0.138821 -0.28868,-0.0113 -1.07097,-0.556925 z"
       id="path1" /></g></svg>
